<svg xmlns="http://www.w3.org/2000/svg" viewBox="0 0 34.85 41.01">
    <defs>
        <style>.cls-1{fill:#fff;}</style>
    </defs>
    <g id="Слой_2" data-name="Слой 2">
        <g id="Layer_1" data-name="Layer 1">
            <path class="cls-1"
                  d="M20.51,33a.42.42,0,0,1-.42-.42v-10a.41.41,0,0,1,.42-.41.41.41,0,0,1,.41.41v10A.41.41,0,0,1,20.51,33Z"/>
            <path class="cls-1"
                  d="M20.51,41H3.59A3.59,3.59,0,0,1,0,37.42V25.72a.42.42,0,0,1,.42-.42.41.41,0,0,1,.41.42v11.7a2.76,2.76,0,0,0,2.76,2.75h16.5v-3.3a.42.42,0,0,1,.42-.42.41.41,0,0,1,.41.42v3.72A.41.41,0,0,1,20.51,41Z"/>
            <path class="cls-1"
                  d="M20.51,29.29H3.58a3.58,3.58,0,1,1,0-7.15H20.51a.41.41,0,0,1,.41.41v6.32A.41.41,0,0,1,20.51,29.29ZM3.58,23a2.74,2.74,0,1,0,0,5.48H20.09V23Z"/>
            <line class="cls-1" x1="20.51" y1="26.76" x2="3.02" y2="26.76"/>
            <path class="cls-1"
                  d="M20.51,27.18H3a.42.42,0,0,1-.42-.42A.41.41,0,0,1,3,26.35H20.51a.41.41,0,0,1,.41.41A.41.41,0,0,1,20.51,27.18Z"/>
            <line class="cls-1" x1="20.51" y1="24.66" x2="3.02" y2="24.66"/>
            <path class="cls-1" d="M20.51,25.08H3a.42.42,0,1,1,0-.84H20.51a.42.42,0,0,1,0,.84Z"/>
            <path class="cls-1"
                  d="M21.2,37.28H14.42a2.56,2.56,0,0,1,0-5.11H21.2a.42.42,0,0,1,.42.42v4.28A.41.41,0,0,1,21.2,37.28ZM14.42,33a1.72,1.72,0,1,0,0,3.44h6.36V33Z"/>
            <path class="cls-1"
                  d="M14.48,35.93a1.2,1.2,0,1,1,1.2-1.2A1.2,1.2,0,0,1,14.48,35.93Zm0-1.56a.36.36,0,1,0,.36.36A.36.36,0,0,0,14.48,34.37Z"/>
            <path class="cls-1"
                  d="M24.24,14.42a.41.41,0,0,1-.41-.42V11a.41.41,0,0,1,.37-.42,3.25,3.25,0,0,0,.69-.14,3.38,3.38,0,0,0,1.87-1.32,2.12,2.12,0,0,0-1-3.25,3.51,3.51,0,0,0-4.31,1.51.43.43,0,0,1-.56.18A.42.42,0,0,1,20.73,7a4.14,4.14,0,0,1,2.53-2,4.21,4.21,0,0,1,2.85.12,2.94,2.94,0,0,1,1.34,4.48,4.19,4.19,0,0,1-2.32,1.66,3.59,3.59,0,0,1-.47.12V14A.42.42,0,0,1,24.24,14.42Z">
                <animate attributeName="opacity" dur="4s" keyTimes="0;0.1;0.5;0.6;1" values="0;1;1;0;0" repeatCount="indefinite"/>
            </path>
            <path class="cls-1"
                  d="M24.34,16.23a.42.42,0,0,1-.42-.42v-.15a.42.42,0,1,1,.84,0v.15A.42.42,0,0,1,24.34,16.23Z">
                <animate attributeName="opacity" dur="4s" keyTimes="0;0.1;0.5;0.6;1" values="0;1;1;0;0" repeatCount="indefinite"/>
            </path>
            <path class="cls-1"
                  d="M24.37,21a10.41,10.41,0,0,1-6.4-2.2l-1.89.51a.42.42,0,0,1-.4-.11.4.4,0,0,1-.11-.4l.5-1.89a10.48,10.48,0,1,1,15.71,1h0A10.46,10.46,0,0,1,24.37,21Zm-6.31-3.07a.39.39,0,0,1,.26.09,9.63,9.63,0,0,0,12.87-.69h0a9.65,9.65,0,1,0-14.33-.78.41.41,0,0,1,.07.37l-.37,1.39L18,17.92Z"/>
        </g>
    </g>
</svg>